<svg width="4275" height="640" viewBox="0 0 4275 640" fill="none" xmlns="http://www.w3.org/2000/svg">
<g clip-path="url(#clip0_516_253)">
<rect width="4275" height="640" rx="29" fill="white"/>
<rect x="80" y="80" width="4120" height="480" rx="29" fill="#18191A"/>
<path d="M1629 344.593L1656.68 361.131C1659.32 362.809 1661.89 362.751 1664.41 360.958C1666.92 359.166 1667.82 356.706 1667.11 353.581L1659.92 322.302L1684.37 301.09C1686.76 298.933 1687.48 296.359 1686.52 293.368C1685.57 290.377 1683.41 288.756 1680.05 288.507L1648.05 285.99L1635.47 256.15C1634.27 253.274 1632.12 251.836 1629 251.836C1625.88 251.836 1623.73 253.274 1622.53 256.15L1609.95 285.99L1577.95 288.507C1574.59 288.747 1572.43 290.367 1571.48 293.368C1570.52 296.369 1571.24 298.943 1573.63 301.09L1598.08 322.302L1590.89 353.581C1590.17 356.697 1591.07 359.156 1593.59 360.958C1596.12 362.761 1598.69 362.818 1601.32 361.131L1629 344.593ZM1580.82 424.048H1542.71C1534.8 424.048 1528.03 421.229 1522.39 415.592C1516.76 409.954 1513.94 403.186 1513.95 395.286V357.176L1486.27 329.133C1483.63 326.257 1481.6 323.084 1480.16 319.613C1478.72 316.143 1478 312.605 1478 309C1478 305.405 1478.72 301.867 1480.16 298.387C1481.6 294.907 1483.63 291.733 1486.27 288.867L1513.95 260.824V222.714C1513.95 214.805 1516.77 208.031 1522.41 202.394C1528.05 196.757 1534.81 193.943 1542.71 193.952H1580.82L1608.87 166.269C1611.74 163.633 1614.92 161.595 1618.4 160.157C1621.88 158.719 1625.41 158 1629 158C1632.6 158 1636.13 158.719 1639.61 160.157C1643.09 161.595 1646.27 163.633 1649.13 166.269L1677.18 193.952H1715.29C1723.2 193.952 1729.97 196.771 1735.61 202.408C1741.24 208.046 1744.06 214.814 1744.05 222.714V260.824L1771.73 288.867C1774.37 291.743 1776.4 294.921 1777.84 298.401C1779.28 301.881 1780 305.414 1780 309C1780 312.595 1779.28 316.133 1777.84 319.613C1776.4 323.093 1774.37 326.267 1771.73 329.133L1744.05 357.176V395.286C1744.05 403.195 1741.23 409.969 1735.59 415.606C1729.95 421.243 1723.19 424.057 1715.29 424.048H1677.18L1649.13 451.731C1646.26 454.367 1643.08 456.405 1639.61 457.843C1636.14 459.281 1632.6 460 1629 460C1625.4 460 1621.87 459.281 1618.4 457.843C1614.93 456.405 1611.75 454.367 1608.87 451.731L1580.82 424.048Z" fill="white"/>
<path d="M1884.83 309C1883.58 309 1882.56 308.603 1881.77 307.81C1880.98 307.017 1880.58 305.997 1880.58 304.75V194.25C1880.58 193.003 1880.98 191.983 1881.77 191.19C1882.56 190.397 1883.58 190 1884.83 190H1960.65C1961.9 190 1962.92 190.397 1963.71 191.19C1964.5 191.983 1964.9 193.003 1964.9 194.25V208.7C1964.9 209.947 1964.5 210.967 1963.71 211.76C1962.92 212.553 1961.9 212.95 1960.65 212.95H1907.1V241.68H1957.25C1958.5 241.68 1959.52 242.077 1960.31 242.87C1961.1 243.663 1961.5 244.683 1961.5 245.93V260.38C1961.5 261.513 1961.1 262.477 1960.31 263.27C1959.52 264.063 1958.5 264.46 1957.25 264.46H1907.1V304.75C1907.1 305.997 1906.7 307.017 1905.91 307.81C1905.12 308.603 1904.1 309 1902.85 309H1884.83ZM1984.72 309C1983.59 309 1982.63 308.603 1981.83 307.81C1981.04 307.017 1980.64 305.997 1980.64 304.75V224.85C1980.64 223.717 1981.04 222.753 1981.83 221.96C1982.63 221.053 1983.59 220.6 1984.72 220.6H2001.38C2002.52 220.6 2003.48 221.053 2004.27 221.96C2005.18 222.753 2005.63 223.717 2005.63 224.85V231.65C2008.47 228.137 2011.92 225.417 2016 223.49C2020.2 221.563 2025.01 220.6 2030.45 220.6H2037.76C2038.9 220.6 2039.86 220.997 2040.65 221.79C2041.45 222.583 2041.84 223.603 2041.84 224.85V239.47C2041.84 240.717 2041.45 241.737 2040.65 242.53C2039.86 243.323 2038.9 243.72 2037.76 243.72H2022.8C2017.82 243.72 2013.91 245.137 2011.07 247.97C2008.24 250.69 2006.82 254.6 2006.82 259.7V304.75C2006.82 305.997 2006.43 307.017 2005.63 307.81C2004.84 308.603 2003.82 309 2002.57 309H1984.72ZM2092.96 310.7C2079.93 310.7 2069.56 307.073 2061.85 299.82C2054.26 292.567 2050.24 282.027 2049.78 268.2C2049.78 267.293 2049.78 266.103 2049.78 264.63C2049.78 263.043 2049.78 261.797 2049.78 260.89C2050.24 252.163 2052.22 244.683 2055.73 238.45C2059.25 232.103 2064.18 227.287 2070.52 224C2076.87 220.6 2084.29 218.9 2092.79 218.9C2102.31 218.9 2110.25 220.883 2116.59 224.85C2123.05 228.703 2127.87 234.03 2131.04 240.83C2134.33 247.517 2135.97 255.223 2135.97 263.95V267.86C2135.97 268.993 2135.52 269.957 2134.61 270.75C2133.82 271.543 2132.86 271.94 2131.72 271.94H2076.13C2076.13 272.053 2076.13 272.28 2076.13 272.62C2076.13 272.847 2076.13 273.073 2076.13 273.3C2076.25 276.927 2076.93 280.27 2078.17 283.33C2079.53 286.277 2081.4 288.657 2083.78 290.47C2086.28 292.283 2089.22 293.19 2092.62 293.19C2095.46 293.19 2097.78 292.793 2099.59 292C2101.41 291.207 2102.88 290.243 2104.01 289.11C2105.26 287.977 2106.17 287.013 2106.73 286.22C2107.75 285.087 2108.55 284.407 2109.11 284.18C2109.79 283.84 2110.81 283.67 2112.17 283.67H2129.85C2130.99 283.67 2131.89 284.01 2132.57 284.69C2133.37 285.257 2133.71 286.107 2133.59 287.24C2133.48 289.053 2132.52 291.32 2130.7 294.04C2129 296.647 2126.45 299.253 2123.05 301.86C2119.65 304.353 2115.4 306.45 2110.3 308.15C2105.32 309.85 2099.54 310.7 2092.96 310.7ZM2076.13 256.47H2109.45V256.13C2109.45 252.05 2108.77 248.537 2107.41 245.59C2106.17 242.53 2104.3 240.15 2101.8 238.45C2099.31 236.75 2096.31 235.9 2092.79 235.9C2089.28 235.9 2086.28 236.75 2083.78 238.45C2081.29 240.15 2079.36 242.53 2078 245.59C2076.76 248.537 2076.13 252.05 2076.13 256.13V256.47ZM2192.41 310.7C2179.37 310.7 2169 307.073 2161.3 299.82C2153.7 292.567 2149.68 282.027 2149.23 268.2C2149.23 267.293 2149.23 266.103 2149.23 264.63C2149.23 263.043 2149.23 261.797 2149.23 260.89C2149.68 252.163 2151.66 244.683 2155.18 238.45C2158.69 232.103 2163.62 227.287 2169.97 224C2176.31 220.6 2183.74 218.9 2192.24 218.9C2201.76 218.9 2209.69 220.883 2216.04 224.85C2222.5 228.703 2227.31 234.03 2230.49 240.83C2233.77 247.517 2235.42 255.223 2235.42 263.95V267.86C2235.42 268.993 2234.96 269.957 2234.06 270.75C2233.26 271.543 2232.3 271.94 2231.17 271.94H2175.58C2175.58 272.053 2175.58 272.28 2175.58 272.62C2175.58 272.847 2175.58 273.073 2175.58 273.3C2175.69 276.927 2176.37 280.27 2177.62 283.33C2178.98 286.277 2180.85 288.657 2183.23 290.47C2185.72 292.283 2188.67 293.19 2192.07 293.19C2194.9 293.19 2197.22 292.793 2199.04 292C2200.85 291.207 2202.32 290.243 2203.46 289.11C2204.7 287.977 2205.61 287.013 2206.18 286.22C2207.2 285.087 2207.99 284.407 2208.56 284.18C2209.24 283.84 2210.26 283.67 2211.62 283.67H2229.3C2230.43 283.67 2231.34 284.01 2232.02 284.69C2232.81 285.257 2233.15 286.107 2233.04 287.24C2232.92 289.053 2231.96 291.32 2230.15 294.04C2228.45 296.647 2225.9 299.253 2222.5 301.86C2219.1 304.353 2214.85 306.45 2209.75 308.15C2204.76 309.85 2198.98 310.7 2192.41 310.7ZM2175.58 256.47H2208.9V256.13C2208.9 252.05 2208.22 248.537 2206.86 245.59C2205.61 242.53 2203.74 240.15 2201.25 238.45C2198.75 236.75 2195.75 235.9 2192.24 235.9C2188.72 235.9 2185.72 236.75 2183.23 238.45C2180.73 240.15 2178.81 242.53 2177.45 245.59C2176.2 248.537 2175.58 252.05 2175.58 256.13V256.47ZM2287.26 310.7C2280.23 310.7 2274.17 309.907 2269.07 308.32C2264.08 306.62 2260 304.58 2256.83 302.2C2253.77 299.82 2251.45 297.44 2249.86 295.06C2248.39 292.567 2247.59 290.47 2247.48 288.77C2247.37 287.523 2247.76 286.503 2248.67 285.71C2249.58 284.917 2250.48 284.52 2251.39 284.52H2267.88C2268.22 284.52 2268.56 284.577 2268.9 284.69C2269.24 284.803 2269.58 285.087 2269.92 285.54C2271.39 286.56 2272.92 287.75 2274.51 289.11C2276.1 290.357 2277.91 291.433 2279.95 292.34C2282.1 293.247 2284.77 293.7 2287.94 293.7C2291.68 293.7 2294.85 292.963 2297.46 291.49C2300.07 289.903 2301.37 287.693 2301.37 284.86C2301.37 282.82 2300.75 281.12 2299.5 279.76C2298.37 278.4 2296.16 277.153 2292.87 276.02C2289.58 274.887 2284.71 273.64 2278.25 272.28C2272.13 270.92 2266.92 269.107 2262.61 266.84C2258.3 264.573 2255.07 261.74 2252.92 258.34C2250.77 254.827 2249.69 250.633 2249.69 245.76C2249.69 241.34 2251.05 237.09 2253.77 233.01C2256.6 228.93 2260.74 225.587 2266.18 222.98C2271.62 220.26 2278.42 218.9 2286.58 218.9C2292.81 218.9 2298.25 219.693 2302.9 221.28C2307.66 222.753 2311.63 224.68 2314.8 227.06C2317.97 229.327 2320.35 231.707 2321.94 234.2C2323.64 236.58 2324.55 238.677 2324.66 240.49C2324.77 241.623 2324.43 242.587 2323.64 243.38C2322.85 244.173 2321.94 244.57 2320.92 244.57H2305.79C2305.22 244.57 2304.71 244.513 2304.26 244.4C2303.81 244.173 2303.41 243.89 2303.07 243.55C2301.71 242.643 2300.29 241.623 2298.82 240.49C2297.46 239.243 2295.82 238.167 2293.89 237.26C2291.96 236.353 2289.47 235.9 2286.41 235.9C2282.67 235.9 2279.78 236.75 2277.74 238.45C2275.81 240.037 2274.85 242.077 2274.85 244.57C2274.85 246.157 2275.36 247.63 2276.38 248.99C2277.4 250.35 2279.5 251.597 2282.67 252.73C2285.84 253.863 2290.66 255.053 2297.12 256.3C2304.83 257.66 2310.95 259.7 2315.48 262.42C2320.01 265.14 2323.24 268.313 2325.17 271.94C2327.21 275.453 2328.23 279.25 2328.23 283.33C2328.23 288.657 2326.64 293.417 2323.47 297.61C2320.3 301.69 2315.65 304.92 2309.53 307.3C2303.52 309.567 2296.1 310.7 2287.26 310.7ZM2383.99 310.7C2370.96 310.7 2360.59 307.073 2352.88 299.82C2345.29 292.567 2341.26 282.027 2340.81 268.2C2340.81 267.293 2340.81 266.103 2340.81 264.63C2340.81 263.043 2340.81 261.797 2340.81 260.89C2341.26 252.163 2343.25 244.683 2346.76 238.45C2350.27 232.103 2355.2 227.287 2361.55 224C2367.9 220.6 2375.32 218.9 2383.82 218.9C2393.34 218.9 2401.27 220.883 2407.62 224.85C2414.08 228.703 2418.9 234.03 2422.07 240.83C2425.36 247.517 2427 255.223 2427 263.95V267.86C2427 268.993 2426.55 269.957 2425.64 270.75C2424.85 271.543 2423.88 271.94 2422.75 271.94H2367.16C2367.16 272.053 2367.16 272.28 2367.16 272.62C2367.16 272.847 2367.16 273.073 2367.16 273.3C2367.27 276.927 2367.95 280.27 2369.2 283.33C2370.56 286.277 2372.43 288.657 2374.81 290.47C2377.3 292.283 2380.25 293.19 2383.65 293.19C2386.48 293.19 2388.81 292.793 2390.62 292C2392.43 291.207 2393.91 290.243 2395.04 289.11C2396.29 287.977 2397.19 287.013 2397.76 286.22C2398.78 285.087 2399.57 284.407 2400.14 284.18C2400.82 283.84 2401.84 283.67 2403.2 283.67H2420.88C2422.01 283.67 2422.92 284.01 2423.6 284.69C2424.39 285.257 2424.73 286.107 2424.62 287.24C2424.51 289.053 2423.54 291.32 2421.73 294.04C2420.03 296.647 2417.48 299.253 2414.08 301.86C2410.68 304.353 2406.43 306.45 2401.33 308.15C2396.34 309.85 2390.56 310.7 2383.99 310.7ZM2367.16 256.47H2400.48V256.13C2400.48 252.05 2399.8 248.537 2398.44 245.59C2397.19 242.53 2395.32 240.15 2392.83 238.45C2390.34 236.75 2387.33 235.9 2383.82 235.9C2380.31 235.9 2377.3 236.75 2374.81 238.45C2372.32 240.15 2370.39 242.53 2369.03 245.59C2367.78 248.537 2367.16 252.05 2367.16 256.13V256.47ZM2486.16 309C2479.13 309 2473.13 307.867 2468.14 305.6C2463.15 303.22 2459.36 299.593 2456.75 294.72C2454.26 289.847 2453.01 283.727 2453.01 276.36V240.66H2439.75C2438.5 240.66 2437.48 240.263 2436.69 239.47C2435.9 238.677 2435.5 237.657 2435.5 236.41V224.85C2435.5 223.603 2435.9 222.583 2436.69 221.79C2437.48 220.997 2438.5 220.6 2439.75 220.6H2453.01V192.55C2453.01 191.303 2453.41 190.283 2454.2 189.49C2455.11 188.697 2456.13 188.3 2457.26 188.3H2473.92C2475.17 188.3 2476.19 188.697 2476.98 189.49C2477.77 190.283 2478.17 191.303 2478.17 192.55V220.6H2499.42C2500.55 220.6 2501.52 220.997 2502.31 221.79C2503.1 222.583 2503.5 223.603 2503.5 224.85V236.41C2503.5 237.657 2503.1 238.677 2502.31 239.47C2501.52 240.263 2500.55 240.66 2499.42 240.66H2478.17V274.32C2478.17 278.627 2478.91 282.027 2480.38 284.52C2481.97 286.9 2484.69 288.09 2488.54 288.09H2500.95C2502.08 288.09 2503.05 288.487 2503.84 289.28C2504.63 290.073 2505.03 291.037 2505.03 292.17V304.75C2505.03 305.997 2504.63 307.017 2503.84 307.81C2503.05 308.603 2502.08 309 2500.95 309H2486.16ZM2554.71 310.7C2547.69 310.7 2541.62 309.907 2536.52 308.32C2531.54 306.62 2527.46 304.58 2524.28 302.2C2521.22 299.82 2518.9 297.44 2517.31 295.06C2515.84 292.567 2515.05 290.47 2514.93 288.77C2514.82 287.523 2515.22 286.503 2516.12 285.71C2517.03 284.917 2517.94 284.52 2518.84 284.52H2535.33C2535.67 284.52 2536.01 284.577 2536.35 284.69C2536.69 284.803 2537.03 285.087 2537.37 285.54C2538.85 286.56 2540.38 287.75 2541.96 289.11C2543.55 290.357 2545.36 291.433 2547.4 292.34C2549.56 293.247 2552.22 293.7 2555.39 293.7C2559.13 293.7 2562.31 292.963 2564.91 291.49C2567.52 289.903 2568.82 287.693 2568.82 284.86C2568.82 282.82 2568.2 281.12 2566.95 279.76C2565.82 278.4 2563.61 277.153 2560.32 276.02C2557.04 274.887 2552.16 273.64 2545.7 272.28C2539.58 270.92 2534.37 269.107 2530.06 266.84C2525.76 264.573 2522.53 261.74 2520.37 258.34C2518.22 254.827 2517.14 250.633 2517.14 245.76C2517.14 241.34 2518.5 237.09 2521.22 233.01C2524.06 228.93 2528.19 225.587 2533.63 222.98C2539.07 220.26 2545.87 218.9 2554.03 218.9C2560.27 218.9 2565.71 219.693 2570.35 221.28C2575.11 222.753 2579.08 224.68 2582.25 227.06C2585.43 229.327 2587.81 231.707 2589.39 234.2C2591.09 236.58 2592 238.677 2592.11 240.49C2592.23 241.623 2591.89 242.587 2591.09 243.38C2590.3 244.173 2589.39 244.57 2588.37 244.57H2573.24C2572.68 244.57 2572.17 244.513 2571.71 244.4C2571.26 244.173 2570.86 243.89 2570.52 243.55C2569.16 242.643 2567.75 241.623 2566.27 240.49C2564.91 239.243 2563.27 238.167 2561.34 237.26C2559.42 236.353 2556.92 235.9 2553.86 235.9C2550.12 235.9 2547.23 236.75 2545.19 238.45C2543.27 240.037 2542.3 242.077 2542.3 244.57C2542.3 246.157 2542.81 247.63 2543.83 248.99C2544.85 250.35 2546.95 251.597 2550.12 252.73C2553.3 253.863 2558.11 255.053 2564.57 256.3C2572.28 257.66 2578.4 259.7 2582.93 262.42C2587.47 265.14 2590.7 268.313 2592.62 271.94C2594.66 275.453 2595.68 279.25 2595.68 283.33C2595.68 288.657 2594.1 293.417 2590.92 297.61C2587.75 301.69 2583.1 304.92 2576.98 307.3C2570.98 309.567 2563.55 310.7 2554.71 310.7Z" fill="white"/>
<path d="M1883.91 414C1883.25 414 1882.71 413.79 1882.29 413.37C1881.87 412.95 1881.66 412.41 1881.66 411.75V353.25C1881.66 352.59 1881.87 352.05 1882.29 351.63C1882.71 351.21 1883.25 351 1883.91 351H1924.05C1924.71 351 1925.25 351.21 1925.67 351.63C1926.09 352.05 1926.3 352.59 1926.3 353.25V360.9C1926.3 361.56 1926.09 362.1 1925.67 362.52C1925.25 362.94 1924.71 363.15 1924.05 363.15H1895.7V378.36H1922.25C1922.91 378.36 1923.45 378.57 1923.87 378.99C1924.29 379.41 1924.5 379.95 1924.5 380.61V388.26C1924.5 388.86 1924.29 389.37 1923.87 389.79C1923.45 390.21 1922.91 390.42 1922.25 390.42H1895.7V411.75C1895.7 412.41 1895.49 412.95 1895.07 413.37C1894.65 413.79 1894.11 414 1893.45 414H1883.91ZM1936.79 414C1936.19 414 1935.68 413.79 1935.26 413.37C1934.84 412.95 1934.63 412.41 1934.63 411.75V369.45C1934.63 368.85 1934.84 368.34 1935.26 367.92C1935.68 367.44 1936.19 367.2 1936.79 367.2H1945.61C1946.21 367.2 1946.72 367.44 1947.14 367.92C1947.62 368.34 1947.86 368.85 1947.86 369.45V373.05C1949.36 371.19 1951.19 369.75 1953.35 368.73C1955.57 367.71 1958.12 367.2 1961 367.2H1964.87C1965.47 367.2 1965.98 367.41 1966.4 367.83C1966.82 368.25 1967.03 368.79 1967.03 369.45V377.19C1967.03 377.85 1966.82 378.39 1966.4 378.81C1965.98 379.23 1965.47 379.44 1964.87 379.44H1956.95C1954.31 379.44 1952.24 380.19 1950.74 381.69C1949.24 383.13 1948.49 385.2 1948.49 387.9V411.75C1948.49 412.41 1948.28 412.95 1947.86 413.37C1947.44 413.79 1946.9 414 1946.24 414H1936.79ZM1994.1 414.9C1987.2 414.9 1981.71 412.98 1977.63 409.14C1973.61 405.3 1971.48 399.72 1971.24 392.4C1971.24 391.92 1971.24 391.29 1971.24 390.51C1971.24 389.67 1971.24 389.01 1971.24 388.53C1971.48 383.91 1972.53 379.95 1974.39 376.65C1976.25 373.29 1978.86 370.74 1982.22 369C1985.58 367.2 1989.51 366.3 1994.01 366.3C1999.05 366.3 2003.25 367.35 2006.61 369.45C2010.03 371.49 2012.58 374.31 2014.26 377.91C2016 381.45 2016.87 385.53 2016.87 390.15V392.22C2016.87 392.82 2016.63 393.33 2016.15 393.75C2015.73 394.17 2015.22 394.38 2014.62 394.38H1985.19C1985.19 394.44 1985.19 394.56 1985.19 394.74C1985.19 394.86 1985.19 394.98 1985.19 395.1C1985.25 397.02 1985.61 398.79 1986.27 400.41C1986.99 401.97 1987.98 403.23 1989.24 404.19C1990.56 405.15 1992.12 405.63 1993.92 405.63C1995.42 405.63 1996.65 405.42 1997.61 405C1998.57 404.58 1999.35 404.07 1999.95 403.47C2000.61 402.87 2001.09 402.36 2001.39 401.94C2001.93 401.34 2002.35 400.98 2002.65 400.86C2003.01 400.68 2003.55 400.59 2004.27 400.59H2013.63C2014.23 400.59 2014.71 400.77 2015.07 401.13C2015.49 401.43 2015.67 401.88 2015.61 402.48C2015.55 403.44 2015.04 404.64 2014.08 406.08C2013.18 407.46 2011.83 408.84 2010.03 410.22C2008.23 411.54 2005.98 412.65 2003.28 413.55C2000.64 414.45 1997.58 414.9 1994.1 414.9ZM1985.19 386.19H2002.83V386.01C2002.83 383.85 2002.47 381.99 2001.75 380.43C2001.09 378.81 2000.1 377.55 1998.78 376.65C1997.46 375.75 1995.87 375.3 1994.01 375.3C1992.15 375.3 1990.56 375.75 1989.24 376.65C1987.92 377.55 1986.9 378.81 1986.18 380.43C1985.52 381.99 1985.19 383.85 1985.19 386.01V386.19ZM2046.75 414.9C2039.85 414.9 2034.36 412.98 2030.28 409.14C2026.26 405.3 2024.13 399.72 2023.89 392.4C2023.89 391.92 2023.89 391.29 2023.89 390.51C2023.89 389.67 2023.89 389.01 2023.89 388.53C2024.13 383.91 2025.18 379.95 2027.04 376.65C2028.9 373.29 2031.51 370.74 2034.87 369C2038.23 367.2 2042.16 366.3 2046.66 366.3C2051.7 366.3 2055.9 367.35 2059.26 369.45C2062.68 371.49 2065.23 374.31 2066.91 377.91C2068.65 381.45 2069.52 385.53 2069.52 390.15V392.22C2069.52 392.82 2069.28 393.33 2068.8 393.75C2068.38 394.17 2067.87 394.38 2067.27 394.38H2037.84C2037.84 394.44 2037.84 394.56 2037.84 394.74C2037.84 394.86 2037.84 394.98 2037.84 395.1C2037.9 397.02 2038.26 398.79 2038.92 400.41C2039.64 401.97 2040.63 403.23 2041.89 404.19C2043.21 405.15 2044.77 405.63 2046.57 405.63C2048.07 405.63 2049.3 405.42 2050.26 405C2051.22 404.58 2052 404.07 2052.6 403.47C2053.26 402.87 2053.74 402.36 2054.04 401.94C2054.58 401.34 2055 400.98 2055.3 400.86C2055.66 400.68 2056.2 400.59 2056.92 400.59H2066.28C2066.88 400.59 2067.36 400.77 2067.72 401.13C2068.14 401.43 2068.32 401.88 2068.26 402.48C2068.2 403.44 2067.69 404.64 2066.73 406.08C2065.83 407.46 2064.48 408.84 2062.68 410.22C2060.88 411.54 2058.63 412.65 2055.93 413.55C2053.29 414.45 2050.23 414.9 2046.75 414.9ZM2037.84 386.19H2055.48V386.01C2055.48 383.85 2055.12 381.99 2054.4 380.43C2053.74 378.81 2052.75 377.55 2051.43 376.65C2050.11 375.75 2048.52 375.3 2046.66 375.3C2044.8 375.3 2043.21 375.75 2041.89 376.65C2040.57 377.55 2039.55 378.81 2038.83 380.43C2038.17 381.99 2037.84 383.85 2037.84 386.01V386.19ZM2112.15 414.9C2108.97 414.9 2106.12 414.3 2103.6 413.1C2101.08 411.84 2099.07 410.16 2097.57 408.06C2096.07 405.96 2095.32 403.62 2095.32 401.04C2095.32 396.78 2097.03 393.42 2100.45 390.96C2103.93 388.5 2108.49 386.82 2114.13 385.92L2125.92 384.21V382.59C2125.92 380.25 2125.38 378.45 2124.3 377.19C2123.22 375.93 2121.33 375.3 2118.63 375.3C2116.65 375.3 2115.06 375.69 2113.86 376.47C2112.66 377.25 2111.73 378.27 2111.07 379.53C2110.59 380.31 2109.9 380.7 2109 380.7H2100.45C2099.79 380.7 2099.28 380.52 2098.92 380.16C2098.56 379.74 2098.41 379.26 2098.47 378.72C2098.47 377.7 2098.86 376.5 2099.64 375.12C2100.42 373.74 2101.62 372.39 2103.24 371.07C2104.86 369.69 2106.93 368.55 2109.45 367.65C2111.97 366.75 2115.06 366.3 2118.72 366.3C2122.5 366.3 2125.74 366.75 2128.44 367.65C2131.14 368.55 2133.3 369.81 2134.92 371.43C2136.54 373.05 2137.74 374.94 2138.52 377.1C2139.3 379.2 2139.69 381.48 2139.69 383.94V411.75C2139.69 412.41 2139.48 412.95 2139.06 413.37C2138.64 413.79 2138.1 414 2137.44 414H2128.62C2128.02 414 2127.51 413.79 2127.09 413.37C2126.67 412.95 2126.46 412.41 2126.46 411.75V408.42C2125.68 409.56 2124.63 410.64 2123.31 411.66C2121.99 412.62 2120.4 413.4 2118.54 414C2116.74 414.6 2114.61 414.9 2112.15 414.9ZM2115.75 405.54C2117.73 405.54 2119.5 405.12 2121.06 404.28C2122.62 403.44 2123.85 402.15 2124.75 400.41C2125.65 398.67 2126.1 396.48 2126.1 393.84V392.31L2117.73 393.66C2114.49 394.2 2112.12 395.01 2110.62 396.09C2109.12 397.17 2108.37 398.49 2108.37 400.05C2108.37 401.19 2108.7 402.18 2109.36 403.02C2110.08 403.86 2111.01 404.49 2112.15 404.91C2113.29 405.33 2114.49 405.54 2115.75 405.54ZM2169.03 414.9C2165.31 414.9 2162.1 414.48 2159.4 413.64C2156.76 412.74 2154.6 411.66 2152.92 410.4C2151.3 409.14 2150.07 407.88 2149.23 406.62C2148.45 405.3 2148.03 404.19 2147.97 403.29C2147.91 402.63 2148.12 402.09 2148.6 401.67C2149.08 401.25 2149.56 401.04 2150.04 401.04H2158.77C2158.95 401.04 2159.13 401.07 2159.31 401.13C2159.49 401.19 2159.67 401.34 2159.85 401.58C2160.63 402.12 2161.44 402.75 2162.28 403.47C2163.12 404.13 2164.08 404.7 2165.16 405.18C2166.3 405.66 2167.71 405.9 2169.39 405.9C2171.37 405.9 2173.05 405.51 2174.43 404.73C2175.81 403.89 2176.5 402.72 2176.5 401.22C2176.5 400.14 2176.17 399.24 2175.51 398.52C2174.91 397.8 2173.74 397.14 2172 396.54C2170.26 395.94 2167.68 395.28 2164.26 394.56C2161.02 393.84 2158.26 392.88 2155.98 391.68C2153.7 390.48 2151.99 388.98 2150.85 387.18C2149.71 385.32 2149.14 383.1 2149.14 380.52C2149.14 378.18 2149.86 375.93 2151.3 373.77C2152.8 371.61 2154.99 369.84 2157.87 368.46C2160.75 367.02 2164.35 366.3 2168.67 366.3C2171.97 366.3 2174.85 366.72 2177.31 367.56C2179.83 368.34 2181.93 369.36 2183.61 370.62C2185.29 371.82 2186.55 373.08 2187.39 374.4C2188.29 375.66 2188.77 376.77 2188.83 377.73C2188.89 378.33 2188.71 378.84 2188.29 379.26C2187.87 379.68 2187.39 379.89 2186.85 379.89H2178.84C2178.54 379.89 2178.27 379.86 2178.03 379.8C2177.79 379.68 2177.58 379.53 2177.4 379.35C2176.68 378.87 2175.93 378.33 2175.15 377.73C2174.43 377.07 2173.56 376.5 2172.54 376.02C2171.52 375.54 2170.2 375.3 2168.58 375.3C2166.6 375.3 2165.07 375.75 2163.99 376.65C2162.97 377.49 2162.46 378.57 2162.46 379.89C2162.46 380.73 2162.73 381.51 2163.27 382.23C2163.81 382.95 2164.92 383.61 2166.6 384.21C2168.28 384.81 2170.83 385.44 2174.25 386.1C2178.33 386.82 2181.57 387.9 2183.97 389.34C2186.37 390.78 2188.08 392.46 2189.1 394.38C2190.18 396.24 2190.72 398.25 2190.72 400.41C2190.72 403.23 2189.88 405.75 2188.2 407.97C2186.52 410.13 2184.06 411.84 2180.82 413.1C2177.64 414.3 2173.71 414.9 2169.03 414.9ZM2217.81 414.9C2214.09 414.9 2210.88 414.48 2208.18 413.64C2205.54 412.74 2203.38 411.66 2201.7 410.4C2200.08 409.14 2198.85 407.88 2198.01 406.62C2197.23 405.3 2196.81 404.19 2196.75 403.29C2196.69 402.63 2196.9 402.09 2197.38 401.67C2197.86 401.25 2198.34 401.04 2198.82 401.04H2207.55C2207.73 401.04 2207.91 401.07 2208.09 401.13C2208.27 401.19 2208.45 401.34 2208.63 401.58C2209.41 402.12 2210.22 402.75 2211.06 403.47C2211.9 404.13 2212.86 404.7 2213.94 405.18C2215.08 405.66 2216.49 405.9 2218.17 405.9C2220.15 405.9 2221.83 405.51 2223.21 404.73C2224.59 403.89 2225.28 402.72 2225.28 401.22C2225.28 400.14 2224.95 399.24 2224.29 398.52C2223.69 397.8 2222.52 397.14 2220.78 396.54C2219.04 395.94 2216.46 395.28 2213.04 394.56C2209.8 393.84 2207.04 392.88 2204.76 391.68C2202.48 390.48 2200.77 388.98 2199.63 387.18C2198.49 385.32 2197.92 383.1 2197.92 380.52C2197.92 378.18 2198.64 375.93 2200.08 373.77C2201.58 371.61 2203.77 369.84 2206.65 368.46C2209.53 367.02 2213.13 366.3 2217.45 366.3C2220.75 366.3 2223.63 366.72 2226.09 367.56C2228.61 368.34 2230.71 369.36 2232.39 370.62C2234.07 371.82 2235.33 373.08 2236.17 374.4C2237.07 375.66 2237.55 376.77 2237.61 377.73C2237.67 378.33 2237.49 378.84 2237.07 379.26C2236.65 379.68 2236.17 379.89 2235.63 379.89H2227.62C2227.32 379.89 2227.05 379.86 2226.81 379.8C2226.57 379.68 2226.36 379.53 2226.18 379.35C2225.46 378.87 2224.71 378.33 2223.93 377.73C2223.21 377.07 2222.34 376.5 2221.32 376.02C2220.3 375.54 2218.98 375.3 2217.36 375.3C2215.38 375.3 2213.85 375.75 2212.77 376.65C2211.75 377.49 2211.24 378.57 2211.24 379.89C2211.24 380.73 2211.51 381.51 2212.05 382.23C2212.59 382.95 2213.7 383.61 2215.38 384.21C2217.06 384.81 2219.61 385.44 2223.03 386.1C2227.11 386.82 2230.35 387.9 2232.75 389.34C2235.15 390.78 2236.86 392.46 2237.88 394.38C2238.96 396.24 2239.5 398.25 2239.5 400.41C2239.5 403.23 2238.66 405.75 2236.98 407.97C2235.3 410.13 2232.84 411.84 2229.6 413.1C2226.42 414.3 2222.49 414.9 2217.81 414.9ZM2269.02 414.9C2262.12 414.9 2256.63 412.98 2252.55 409.14C2248.53 405.3 2246.4 399.72 2246.16 392.4C2246.16 391.92 2246.16 391.29 2246.16 390.51C2246.16 389.67 2246.16 389.01 2246.16 388.53C2246.4 383.91 2247.45 379.95 2249.31 376.65C2251.17 373.29 2253.78 370.74 2257.14 369C2260.5 367.2 2264.43 366.3 2268.93 366.3C2273.97 366.3 2278.17 367.35 2281.53 369.45C2284.95 371.49 2287.5 374.31 2289.18 377.91C2290.92 381.45 2291.79 385.53 2291.79 390.15V392.22C2291.79 392.82 2291.55 393.33 2291.07 393.75C2290.65 394.17 2290.14 394.38 2289.54 394.38H2260.11C2260.11 394.44 2260.11 394.56 2260.11 394.74C2260.11 394.86 2260.11 394.98 2260.11 395.1C2260.17 397.02 2260.53 398.79 2261.19 400.41C2261.91 401.97 2262.9 403.23 2264.16 404.19C2265.48 405.15 2267.04 405.63 2268.84 405.63C2270.34 405.63 2271.57 405.42 2272.53 405C2273.49 404.58 2274.27 404.07 2274.87 403.47C2275.53 402.87 2276.01 402.36 2276.31 401.94C2276.85 401.34 2277.27 400.98 2277.57 400.86C2277.93 400.68 2278.47 400.59 2279.19 400.59H2288.55C2289.15 400.59 2289.63 400.77 2289.99 401.13C2290.41 401.43 2290.59 401.88 2290.53 402.48C2290.47 403.44 2289.96 404.64 2289 406.08C2288.1 407.46 2286.75 408.84 2284.95 410.22C2283.15 411.54 2280.9 412.65 2278.2 413.55C2275.56 414.45 2272.5 414.9 2269.02 414.9ZM2260.11 386.19H2277.75V386.01C2277.75 383.85 2277.39 381.99 2276.67 380.43C2276.01 378.81 2275.02 377.55 2273.7 376.65C2272.38 375.75 2270.79 375.3 2268.93 375.3C2267.07 375.3 2265.48 375.75 2264.16 376.65C2262.84 377.55 2261.82 378.81 2261.1 380.43C2260.44 381.99 2260.11 383.85 2260.11 386.01V386.19ZM2323.11 414C2319.39 414 2316.21 413.4 2313.57 412.2C2310.93 410.94 2308.92 409.02 2307.54 406.44C2306.22 403.86 2305.56 400.62 2305.56 396.72V377.82H2298.54C2297.88 377.82 2297.34 377.61 2296.92 377.19C2296.5 376.77 2296.29 376.23 2296.29 375.57V369.45C2296.29 368.79 2296.5 368.25 2296.92 367.83C2297.34 367.41 2297.88 367.2 2298.54 367.2H2305.56V352.35C2305.56 351.69 2305.77 351.15 2306.19 350.73C2306.67 350.31 2307.21 350.1 2307.81 350.1H2316.63C2317.29 350.1 2317.83 350.31 2318.25 350.73C2318.67 351.15 2318.88 351.69 2318.88 352.35V367.2H2330.13C2330.73 367.2 2331.24 367.41 2331.66 367.83C2332.08 368.25 2332.29 368.79 2332.29 369.45V375.57C2332.29 376.23 2332.08 376.77 2331.66 377.19C2331.24 377.61 2330.73 377.82 2330.13 377.82H2318.88V395.64C2318.88 397.92 2319.27 399.72 2320.05 401.04C2320.89 402.3 2322.33 402.93 2324.37 402.93H2330.94C2331.54 402.93 2332.05 403.14 2332.47 403.56C2332.89 403.98 2333.1 404.49 2333.1 405.09V411.75C2333.1 412.41 2332.89 412.95 2332.47 413.37C2332.05 413.79 2331.54 414 2330.94 414H2323.11ZM2359.4 414.9C2355.68 414.9 2352.47 414.48 2349.77 413.64C2347.13 412.74 2344.97 411.66 2343.29 410.4C2341.67 409.14 2340.44 407.88 2339.6 406.62C2338.82 405.3 2338.4 404.19 2338.34 403.29C2338.28 402.63 2338.49 402.09 2338.97 401.67C2339.45 401.25 2339.93 401.04 2340.41 401.04H2349.14C2349.32 401.04 2349.5 401.07 2349.68 401.13C2349.86 401.19 2350.04 401.34 2350.22 401.58C2351 402.12 2351.81 402.75 2352.65 403.47C2353.49 404.13 2354.45 404.7 2355.53 405.18C2356.67 405.66 2358.08 405.9 2359.76 405.9C2361.74 405.9 2363.42 405.51 2364.8 404.73C2366.18 403.89 2366.87 402.72 2366.87 401.22C2366.87 400.14 2366.54 399.24 2365.88 398.52C2365.28 397.8 2364.11 397.14 2362.37 396.54C2360.63 395.94 2358.05 395.28 2354.63 394.56C2351.39 393.84 2348.63 392.88 2346.35 391.68C2344.07 390.48 2342.36 388.98 2341.22 387.18C2340.08 385.32 2339.51 383.1 2339.51 380.52C2339.51 378.18 2340.23 375.93 2341.67 373.77C2343.17 371.61 2345.36 369.84 2348.24 368.46C2351.12 367.02 2354.72 366.3 2359.04 366.3C2362.34 366.3 2365.22 366.72 2367.68 367.56C2370.2 368.34 2372.3 369.36 2373.98 370.62C2375.66 371.82 2376.92 373.08 2377.76 374.4C2378.66 375.66 2379.14 376.77 2379.2 377.73C2379.26 378.33 2379.08 378.84 2378.66 379.26C2378.24 379.68 2377.76 379.89 2377.22 379.89H2369.21C2368.91 379.89 2368.64 379.86 2368.4 379.8C2368.16 379.68 2367.95 379.53 2367.77 379.35C2367.05 378.87 2366.3 378.33 2365.52 377.73C2364.8 377.07 2363.93 376.5 2362.91 376.02C2361.89 375.54 2360.57 375.3 2358.95 375.3C2356.97 375.3 2355.44 375.75 2354.36 376.65C2353.34 377.49 2352.83 378.57 2352.83 379.89C2352.83 380.73 2353.1 381.51 2353.64 382.23C2354.18 382.95 2355.29 383.61 2356.97 384.21C2358.65 384.81 2361.2 385.44 2364.62 386.1C2368.7 386.82 2371.94 387.9 2374.34 389.34C2376.74 390.78 2378.45 392.46 2379.47 394.38C2380.55 396.24 2381.09 398.25 2381.09 400.41C2381.09 403.23 2380.25 405.75 2378.57 407.97C2376.89 410.13 2374.43 411.84 2371.19 413.1C2368.01 414.3 2364.08 414.9 2359.4 414.9ZM2415.48 414C2414.82 414 2414.28 413.79 2413.86 413.37C2413.44 412.95 2413.23 412.41 2413.23 411.75V377.82H2406.21C2405.55 377.82 2405.01 377.61 2404.59 377.19C2404.17 376.77 2403.96 376.23 2403.96 375.57V369.45C2403.96 368.79 2404.17 368.25 2404.59 367.83C2405.01 367.41 2405.55 367.2 2406.21 367.2H2413.23V363.96C2413.23 360.12 2413.95 356.97 2415.39 354.51C2416.83 352.05 2418.93 350.25 2421.69 349.11C2424.45 347.97 2427.84 347.4 2431.86 347.4H2438.43C2439.09 347.4 2439.63 347.61 2440.05 348.03C2440.47 348.45 2440.68 348.99 2440.68 349.65V355.77C2440.68 356.43 2440.47 356.97 2440.05 357.39C2439.63 357.81 2439.09 358.02 2438.43 358.02H2432.4C2430.18 358.02 2428.62 358.56 2427.72 359.64C2426.88 360.72 2426.46 362.31 2426.46 364.41V367.2H2437.53C2438.19 367.2 2438.73 367.41 2439.15 367.83C2439.57 368.25 2439.78 368.79 2439.78 369.45V375.57C2439.78 376.23 2439.57 376.77 2439.15 377.19C2438.73 377.61 2438.19 377.82 2437.53 377.82H2426.46V411.75C2426.46 412.41 2426.25 412.95 2425.83 413.37C2425.41 413.79 2424.9 414 2424.3 414H2415.48ZM2467.4 414.9C2462.42 414.9 2458.25 414.09 2454.89 412.47C2451.53 410.79 2448.95 408.42 2447.15 405.36C2445.41 402.3 2444.45 398.73 2444.27 394.65C2444.21 393.45 2444.18 392.1 2444.18 390.6C2444.18 389.04 2444.21 387.69 2444.27 386.55C2444.45 382.41 2445.47 378.84 2447.33 375.84C2449.19 372.78 2451.8 370.44 2455.16 368.82C2458.52 367.14 2462.6 366.3 2467.4 366.3C2472.14 366.3 2476.19 367.14 2479.55 368.82C2482.91 370.44 2485.52 372.78 2487.38 375.84C2489.24 378.84 2490.26 382.41 2490.44 386.55C2490.56 387.69 2490.62 389.04 2490.62 390.6C2490.62 392.1 2490.56 393.45 2490.44 394.65C2490.26 398.73 2489.27 402.3 2487.47 405.36C2485.73 408.42 2483.18 410.79 2479.82 412.47C2476.46 414.09 2472.32 414.9 2467.4 414.9ZM2467.4 405C2470.34 405 2472.56 404.1 2474.06 402.3C2475.56 400.44 2476.37 397.74 2476.49 394.2C2476.55 393.3 2476.58 392.1 2476.58 390.6C2476.58 389.1 2476.55 387.9 2476.49 387C2476.37 383.52 2475.56 380.85 2474.06 378.99C2472.56 377.13 2470.34 376.2 2467.4 376.2C2464.46 376.2 2462.21 377.13 2460.65 378.99C2459.15 380.85 2458.34 383.52 2458.22 387C2458.16 387.9 2458.13 389.1 2458.13 390.6C2458.13 392.1 2458.16 393.3 2458.22 394.2C2458.34 397.74 2459.15 400.44 2460.65 402.3C2462.21 404.1 2464.46 405 2467.4 405ZM2502.2 414C2501.6 414 2501.09 413.79 2500.67 413.37C2500.25 412.95 2500.04 412.41 2500.04 411.75V369.45C2500.04 368.85 2500.25 368.34 2500.67 367.92C2501.09 367.44 2501.6 367.2 2502.2 367.2H2511.02C2511.62 367.2 2512.13 367.44 2512.55 367.92C2513.03 368.34 2513.27 368.85 2513.27 369.45V373.05C2514.77 371.19 2516.6 369.75 2518.76 368.73C2520.98 367.71 2523.53 367.2 2526.41 367.2H2530.28C2530.88 367.2 2531.39 367.41 2531.81 367.83C2532.23 368.25 2532.44 368.79 2532.44 369.45V377.19C2532.44 377.85 2532.23 378.39 2531.81 378.81C2531.39 379.23 2530.88 379.44 2530.28 379.44H2522.36C2519.72 379.44 2517.65 380.19 2516.15 381.69C2514.65 383.13 2513.9 385.2 2513.9 387.9V411.75C2513.9 412.41 2513.69 412.95 2513.27 413.37C2512.85 413.79 2512.31 414 2511.65 414H2502.2ZM2563.34 431.1C2562.86 431.1 2562.41 430.92 2561.99 430.56C2561.63 430.2 2561.45 429.75 2561.45 429.21C2561.45 429.09 2561.48 428.91 2561.54 428.67C2561.6 428.49 2561.69 428.25 2561.81 427.95L2568.83 411.12L2551.55 370.35C2551.37 369.87 2551.28 369.48 2551.28 369.18C2551.34 368.64 2551.55 368.19 2551.91 367.83C2552.27 367.41 2552.72 367.2 2553.26 367.2H2561.99C2562.77 367.2 2563.34 367.41 2563.7 367.83C2564.06 368.19 2564.33 368.58 2564.51 369L2575.67 396.9L2587.1 369C2587.34 368.52 2587.64 368.1 2588 367.74C2588.36 367.38 2588.93 367.2 2589.71 367.2H2598.26C2598.8 367.2 2599.25 367.41 2599.61 367.83C2600.03 368.19 2600.24 368.61 2600.24 369.09C2600.24 369.39 2600.12 369.81 2599.88 370.35L2574.41 429.3C2574.23 429.78 2573.93 430.2 2573.51 430.56C2573.15 430.92 2572.58 431.1 2571.8 431.1H2563.34ZM2627.1 414.9C2622.12 414.9 2617.95 414.09 2614.59 412.47C2611.23 410.79 2608.65 408.42 2606.85 405.36C2605.11 402.3 2604.15 398.73 2603.97 394.65C2603.91 393.45 2603.88 392.1 2603.88 390.6C2603.88 389.04 2603.91 387.69 2603.97 386.55C2604.15 382.41 2605.17 378.84 2607.03 375.84C2608.89 372.78 2611.5 370.44 2614.86 368.82C2618.22 367.14 2622.3 366.3 2627.1 366.3C2631.84 366.3 2635.89 367.14 2639.25 368.82C2642.61 370.44 2645.22 372.78 2647.08 375.84C2648.94 378.84 2649.96 382.41 2650.14 386.55C2650.26 387.69 2650.32 389.04 2650.32 390.6C2650.32 392.1 2650.26 393.45 2650.14 394.65C2649.96 398.73 2648.97 402.3 2647.17 405.36C2645.43 408.42 2642.88 410.79 2639.52 412.47C2636.16 414.09 2632.02 414.9 2627.1 414.9ZM2627.1 405C2630.04 405 2632.26 404.1 2633.76 402.3C2635.26 400.44 2636.07 397.74 2636.19 394.2C2636.25 393.3 2636.28 392.1 2636.28 390.6C2636.28 389.1 2636.25 387.9 2636.19 387C2636.07 383.52 2635.26 380.85 2633.76 378.99C2632.26 377.13 2630.04 376.2 2627.1 376.2C2624.16 376.2 2621.91 377.13 2620.35 378.99C2618.85 380.85 2618.04 383.52 2617.92 387C2617.86 387.9 2617.83 389.1 2617.83 390.6C2617.83 392.1 2617.86 393.3 2617.92 394.2C2618.04 397.74 2618.85 400.44 2620.35 402.3C2621.91 404.1 2624.16 405 2627.1 405ZM2676.92 414.9C2673.44 414.9 2670.35 414.12 2667.65 412.56C2665.01 410.94 2662.94 408.63 2661.44 405.63C2660 402.57 2659.28 398.88 2659.28 394.56V369.45C2659.28 368.79 2659.49 368.25 2659.91 367.83C2660.33 367.41 2660.84 367.2 2661.44 367.2H2670.98C2671.64 367.2 2672.18 367.41 2672.6 367.83C2673.02 368.25 2673.23 368.79 2673.23 369.45V394.02C2673.23 400.74 2676.17 404.1 2682.05 404.1C2684.87 404.1 2687.09 403.23 2688.71 401.49C2690.39 399.69 2691.23 397.2 2691.23 394.02V369.45C2691.23 368.79 2691.44 368.25 2691.86 367.83C2692.28 367.41 2692.82 367.2 2693.48 367.2H2703.02C2703.62 367.2 2704.13 367.41 2704.55 367.83C2704.97 368.25 2705.18 368.79 2705.18 369.45V411.75C2705.18 412.41 2704.97 412.95 2704.55 413.37C2704.13 413.79 2703.62 414 2703.02 414H2694.2C2693.54 414 2693 413.79 2692.58 413.37C2692.16 412.95 2691.95 412.41 2691.95 411.75V408.24C2690.39 410.4 2688.38 412.05 2685.92 413.19C2683.46 414.33 2680.46 414.9 2676.92 414.9ZM2718.67 414C2718.07 414 2717.56 413.79 2717.14 413.37C2716.72 412.95 2716.51 412.41 2716.51 411.75V369.45C2716.51 368.85 2716.72 368.34 2717.14 367.92C2717.56 367.44 2718.07 367.2 2718.67 367.2H2727.49C2728.09 367.2 2728.6 367.44 2729.02 367.92C2729.5 368.34 2729.74 368.85 2729.74 369.45V373.05C2731.24 371.19 2733.07 369.75 2735.23 368.73C2737.45 367.71 2740 367.2 2742.88 367.2H2746.75C2747.35 367.2 2747.86 367.41 2748.28 367.83C2748.7 368.25 2748.91 368.79 2748.91 369.45V377.19C2748.91 377.85 2748.7 378.39 2748.28 378.81C2747.86 379.23 2747.35 379.44 2746.75 379.44H2738.83C2736.19 379.44 2734.12 380.19 2732.62 381.69C2731.12 383.13 2730.37 385.2 2730.37 387.9V411.75C2730.37 412.41 2730.16 412.95 2729.74 413.37C2729.32 413.79 2728.78 414 2728.12 414H2718.67ZM2775.89 431.1C2775.23 431.1 2774.69 430.89 2774.27 430.47C2773.85 430.05 2773.64 429.51 2773.64 428.85V369.45C2773.64 368.79 2773.85 368.25 2774.27 367.83C2774.69 367.41 2775.23 367.2 2775.89 367.2H2784.44C2785.1 367.2 2785.64 367.41 2786.06 367.83C2786.48 368.25 2786.69 368.79 2786.69 369.45V372.87C2788.13 370.95 2789.99 369.39 2792.27 368.19C2794.55 366.93 2797.4 366.3 2800.82 366.3C2803.94 366.3 2806.64 366.81 2808.92 367.83C2811.26 368.79 2813.21 370.2 2814.77 372.06C2816.39 373.86 2817.62 376.05 2818.46 378.63C2819.36 381.21 2819.87 384.12 2819.99 387.36C2820.05 388.5 2820.08 389.58 2820.08 390.6C2820.08 391.62 2820.05 392.73 2819.99 393.93C2819.93 396.99 2819.45 399.81 2818.55 402.39C2817.71 404.97 2816.48 407.19 2814.86 409.05C2813.24 410.91 2811.26 412.35 2808.92 413.37C2806.64 414.39 2803.94 414.9 2800.82 414.9C2797.76 414.9 2795.09 414.36 2792.81 413.28C2790.59 412.14 2788.76 410.61 2787.32 408.69V428.85C2787.32 429.51 2787.11 430.05 2786.69 430.47C2786.27 430.89 2785.76 431.1 2785.16 431.1H2775.89ZM2796.77 404.1C2799.05 404.1 2800.85 403.62 2802.17 402.66C2803.49 401.64 2804.42 400.32 2804.96 398.7C2805.56 397.08 2805.92 395.31 2806.04 393.39C2806.16 391.53 2806.16 389.67 2806.04 387.81C2805.92 385.89 2805.56 384.12 2804.96 382.5C2804.42 380.88 2803.49 379.59 2802.17 378.63C2800.85 377.61 2799.05 377.1 2796.77 377.1C2794.55 377.1 2792.75 377.61 2791.37 378.63C2789.99 379.65 2789 380.94 2788.4 382.5C2787.8 384.06 2787.44 385.74 2787.32 387.54C2787.26 388.62 2787.23 389.73 2787.23 390.87C2787.23 392.01 2787.26 393.15 2787.32 394.29C2787.38 395.97 2787.74 397.56 2788.4 399.06C2789.12 400.5 2790.14 401.7 2791.46 402.66C2792.84 403.62 2794.61 404.1 2796.77 404.1ZM2831.79 414C2831.19 414 2830.68 413.79 2830.26 413.37C2829.84 412.95 2829.63 412.41 2829.63 411.75V369.45C2829.63 368.85 2829.84 368.34 2830.26 367.92C2830.68 367.44 2831.19 367.2 2831.79 367.2H2840.61C2841.21 367.2 2841.72 367.44 2842.14 367.92C2842.62 368.34 2842.86 368.85 2842.86 369.45V373.05C2844.36 371.19 2846.19 369.75 2848.35 368.73C2850.57 367.71 2853.12 367.2 2856 367.2H2859.87C2860.47 367.2 2860.98 367.41 2861.4 367.83C2861.82 368.25 2862.03 368.79 2862.03 369.45V377.19C2862.03 377.85 2861.82 378.39 2861.4 378.81C2860.98 379.23 2860.47 379.44 2859.87 379.44H2851.95C2849.31 379.44 2847.24 380.19 2845.74 381.69C2844.24 383.13 2843.49 385.2 2843.49 387.9V411.75C2843.49 412.41 2843.28 412.95 2842.86 413.37C2842.44 413.79 2841.9 414 2841.24 414H2831.79ZM2889.63 414.9C2884.65 414.9 2880.48 414.09 2877.12 412.47C2873.76 410.79 2871.18 408.42 2869.38 405.36C2867.64 402.3 2866.68 398.73 2866.5 394.65C2866.44 393.45 2866.41 392.1 2866.41 390.6C2866.41 389.04 2866.44 387.69 2866.5 386.55C2866.68 382.41 2867.7 378.84 2869.56 375.84C2871.42 372.78 2874.03 370.44 2877.39 368.82C2880.75 367.14 2884.83 366.3 2889.63 366.3C2894.37 366.3 2898.42 367.14 2901.78 368.82C2905.14 370.44 2907.75 372.78 2909.61 375.84C2911.47 378.84 2912.49 382.41 2912.67 386.55C2912.79 387.69 2912.85 389.04 2912.85 390.6C2912.85 392.1 2912.79 393.45 2912.67 394.65C2912.49 398.73 2911.5 402.3 2909.7 405.36C2907.96 408.42 2905.41 410.79 2902.05 412.47C2898.69 414.09 2894.55 414.9 2889.63 414.9ZM2889.63 405C2892.57 405 2894.79 404.1 2896.29 402.3C2897.79 400.44 2898.6 397.74 2898.72 394.2C2898.78 393.3 2898.81 392.1 2898.81 390.6C2898.81 389.1 2898.78 387.9 2898.72 387C2898.6 383.52 2897.79 380.85 2896.29 378.99C2894.79 377.13 2892.57 376.2 2889.63 376.2C2886.69 376.2 2884.44 377.13 2882.88 378.99C2881.38 380.85 2880.57 383.52 2880.45 387C2880.39 387.9 2880.36 389.1 2880.36 390.6C2880.36 392.1 2880.39 393.3 2880.45 394.2C2880.57 397.74 2881.38 400.44 2882.88 402.3C2884.44 404.1 2886.69 405 2889.63 405ZM2914.43 431.1C2913.77 431.1 2913.23 430.89 2912.81 430.47C2912.39 430.05 2912.18 429.51 2912.18 428.85V422.73C2912.18 422.07 2912.39 421.53 2912.81 421.11C2913.23 420.69 2913.77 420.48 2914.43 420.48H2917.31C2918.93 420.48 2920.16 420.15 2921 419.49C2921.9 418.89 2922.5 418.05 2922.8 416.97C2923.1 415.89 2923.25 414.69 2923.25 413.37V369.45C2923.25 368.79 2923.46 368.25 2923.88 367.83C2924.3 367.41 2924.81 367.2 2925.41 367.2H2934.86C2935.46 367.2 2935.97 367.41 2936.39 367.83C2936.81 368.25 2937.02 368.79 2937.02 369.45V413.64C2937.02 417.3 2936.33 420.42 2934.95 423C2933.57 425.64 2931.5 427.65 2928.74 429.03C2926.04 430.41 2922.68 431.1 2918.66 431.1H2914.43ZM2925.14 360C2924.54 360 2924.03 359.79 2923.61 359.37C2923.19 358.95 2922.98 358.41 2922.98 357.75V350.55C2922.98 349.89 2923.19 349.35 2923.61 348.93C2924.03 348.45 2924.54 348.21 2925.14 348.21H2935.04C2935.7 348.21 2936.24 348.45 2936.66 348.93C2937.08 349.35 2937.29 349.89 2937.29 350.55V357.75C2937.29 358.41 2937.08 358.95 2936.66 359.37C2936.24 359.79 2935.7 360 2935.04 360H2925.14ZM2969.6 414.9C2962.7 414.9 2957.21 412.98 2953.13 409.14C2949.11 405.3 2946.98 399.72 2946.74 392.4C2946.74 391.92 2946.74 391.29 2946.74 390.51C2946.74 389.67 2946.74 389.01 2946.74 388.53C2946.98 383.91 2948.03 379.95 2949.89 376.65C2951.75 373.29 2954.36 370.74 2957.72 369C2961.08 367.2 2965.01 366.3 2969.51 366.3C2974.55 366.3 2978.75 367.35 2982.11 369.45C2985.53 371.49 2988.08 374.31 2989.76 377.91C2991.5 381.45 2992.37 385.53 2992.37 390.15V392.22C2992.37 392.82 2992.13 393.33 2991.65 393.75C2991.23 394.17 2990.72 394.38 2990.12 394.38H2960.69C2960.69 394.44 2960.69 394.56 2960.69 394.74C2960.69 394.86 2960.69 394.98 2960.69 395.1C2960.75 397.02 2961.11 398.79 2961.77 400.41C2962.49 401.97 2963.48 403.23 2964.74 404.19C2966.06 405.15 2967.62 405.63 2969.42 405.63C2970.92 405.63 2972.15 405.42 2973.11 405C2974.07 404.58 2974.85 404.07 2975.45 403.47C2976.11 402.87 2976.59 402.36 2976.89 401.94C2977.43 401.34 2977.85 400.98 2978.15 400.86C2978.51 400.68 2979.05 400.59 2979.77 400.59H2989.13C2989.73 400.59 2990.21 400.77 2990.57 401.13C2990.99 401.43 2991.17 401.88 2991.11 402.48C2991.05 403.44 2990.54 404.64 2989.58 406.08C2988.68 407.46 2987.33 408.84 2985.53 410.22C2983.73 411.54 2981.48 412.65 2978.78 413.55C2976.14 414.45 2973.08 414.9 2969.6 414.9ZM2960.69 386.19H2978.33V386.01C2978.33 383.85 2977.97 381.99 2977.25 380.43C2976.59 378.81 2975.6 377.55 2974.28 376.65C2972.96 375.75 2971.37 375.3 2969.51 375.3C2967.65 375.3 2966.06 375.75 2964.74 376.65C2963.42 377.55 2962.4 378.81 2961.68 380.43C2961.02 381.99 2960.69 383.85 2960.69 386.01V386.19ZM3022.15 414.9C3017.77 414.9 3013.9 414.09 3010.54 412.47C3007.24 410.85 3004.63 408.51 3002.71 405.45C3000.79 402.33 2999.74 398.61 2999.56 394.29C2999.5 393.33 2999.47 392.13 2999.47 390.69C2999.47 389.19 2999.5 387.96 2999.56 387C2999.74 382.62 3000.76 378.9 3002.62 375.84C3004.54 372.72 3007.18 370.35 3010.54 368.73C3013.9 367.11 3017.77 366.3 3022.15 366.3C3026.17 366.3 3029.59 366.87 3032.41 368.01C3035.23 369.09 3037.54 370.47 3039.34 372.15C3041.14 373.83 3042.46 375.6 3043.3 377.46C3044.2 379.26 3044.68 380.85 3044.74 382.23C3044.8 382.83 3044.59 383.37 3044.11 383.85C3043.69 384.27 3043.18 384.48 3042.58 384.48H3032.95C3032.35 384.48 3031.87 384.33 3031.51 384.03C3031.21 383.67 3030.91 383.19 3030.61 382.59C3029.77 380.49 3028.69 378.99 3027.37 378.09C3026.05 377.19 3024.4 376.74 3022.42 376.74C3019.72 376.74 3017.59 377.61 3016.03 379.35C3014.47 381.09 3013.63 383.79 3013.51 387.45C3013.45 389.79 3013.45 391.92 3013.51 393.84C3013.69 397.56 3014.53 400.26 3016.03 401.94C3017.59 403.62 3019.72 404.46 3022.42 404.46C3024.52 404.46 3026.2 404.01 3027.46 403.11C3028.72 402.21 3029.77 400.71 3030.61 398.61C3030.85 398.01 3031.15 397.56 3031.51 397.26C3031.87 396.9 3032.35 396.72 3032.95 396.72H3042.58C3043.18 396.72 3043.69 396.96 3044.11 397.44C3044.59 397.86 3044.8 398.37 3044.74 398.97C3044.68 399.99 3044.38 401.19 3043.84 402.57C3043.36 403.95 3042.55 405.36 3041.41 406.8C3040.33 408.24 3038.92 409.59 3037.18 410.85C3035.44 412.05 3033.31 413.04 3030.79 413.82C3028.33 414.54 3025.45 414.9 3022.15 414.9ZM3076.07 414C3072.35 414 3069.17 413.4 3066.53 412.2C3063.89 410.94 3061.88 409.02 3060.5 406.44C3059.18 403.86 3058.52 400.62 3058.52 396.72V377.82H3051.5C3050.84 377.82 3050.3 377.61 3049.88 377.19C3049.46 376.77 3049.25 376.23 3049.25 375.57V369.45C3049.25 368.79 3049.46 368.25 3049.88 367.83C3050.3 367.41 3050.84 367.2 3051.5 367.2H3058.52V352.35C3058.52 351.69 3058.73 351.15 3059.15 350.73C3059.63 350.31 3060.17 350.1 3060.77 350.1H3069.59C3070.25 350.1 3070.79 350.31 3071.21 350.73C3071.63 351.15 3071.84 351.69 3071.84 352.35V367.2H3083.09C3083.69 367.2 3084.2 367.41 3084.62 367.83C3085.04 368.25 3085.25 368.79 3085.25 369.45V375.57C3085.25 376.23 3085.04 376.77 3084.62 377.19C3084.2 377.61 3083.69 377.82 3083.09 377.82H3071.84V395.64C3071.84 397.92 3072.23 399.72 3073.01 401.04C3073.85 402.3 3075.29 402.93 3077.33 402.93H3083.9C3084.5 402.93 3085.01 403.14 3085.43 403.56C3085.85 403.98 3086.06 404.49 3086.06 405.09V411.75C3086.06 412.41 3085.85 412.95 3085.43 413.37C3085.01 413.79 3084.5 414 3083.9 414H3076.07ZM3112.36 414.9C3108.64 414.9 3105.43 414.48 3102.73 413.64C3100.09 412.74 3097.93 411.66 3096.25 410.4C3094.63 409.14 3093.4 407.88 3092.56 406.62C3091.78 405.3 3091.36 404.19 3091.3 403.29C3091.24 402.63 3091.45 402.09 3091.93 401.67C3092.41 401.25 3092.89 401.04 3093.37 401.04H3102.1C3102.28 401.04 3102.46 401.07 3102.64 401.13C3102.82 401.19 3103 401.34 3103.18 401.58C3103.96 402.12 3104.77 402.75 3105.61 403.47C3106.45 404.13 3107.41 404.7 3108.49 405.18C3109.63 405.66 3111.04 405.9 3112.72 405.9C3114.7 405.9 3116.38 405.51 3117.76 404.73C3119.14 403.89 3119.83 402.72 3119.83 401.22C3119.83 400.14 3119.5 399.24 3118.84 398.52C3118.24 397.8 3117.07 397.14 3115.33 396.54C3113.59 395.94 3111.01 395.28 3107.59 394.56C3104.35 393.84 3101.59 392.88 3099.31 391.68C3097.03 390.48 3095.32 388.98 3094.18 387.18C3093.04 385.32 3092.47 383.1 3092.47 380.52C3092.47 378.18 3093.19 375.93 3094.63 373.77C3096.13 371.61 3098.32 369.84 3101.2 368.46C3104.08 367.02 3107.68 366.3 3112 366.3C3115.3 366.3 3118.18 366.72 3120.64 367.56C3123.16 368.34 3125.26 369.36 3126.94 370.62C3128.62 371.82 3129.88 373.08 3130.72 374.4C3131.62 375.66 3132.1 376.77 3132.16 377.73C3132.22 378.33 3132.04 378.84 3131.62 379.26C3131.2 379.68 3130.72 379.89 3130.18 379.89H3122.17C3121.87 379.89 3121.6 379.86 3121.36 379.8C3121.12 379.68 3120.91 379.53 3120.73 379.35C3120.01 378.87 3119.26 378.33 3118.48 377.73C3117.76 377.07 3116.89 376.5 3115.87 376.02C3114.85 375.54 3113.53 375.3 3111.91 375.3C3109.93 375.3 3108.4 375.75 3107.32 376.65C3106.3 377.49 3105.79 378.57 3105.79 379.89C3105.79 380.73 3106.06 381.51 3106.6 382.23C3107.14 382.95 3108.25 383.61 3109.93 384.21C3111.61 384.81 3114.16 385.44 3117.58 386.1C3121.66 386.82 3124.9 387.9 3127.3 389.34C3129.7 390.78 3131.41 392.46 3132.43 394.38C3133.51 396.24 3134.05 398.25 3134.05 400.41C3134.05 403.23 3133.21 405.75 3131.53 407.97C3129.85 410.13 3127.39 411.84 3124.15 413.1C3120.97 414.3 3117.04 414.9 3112.36 414.9Z" fill="white"/>
</g>
<defs>
<clipPath id="clip0_516_253">
<rect width="4275" height="640" fill="white"/>
</clipPath>
</defs>
</svg>
