<svg width="2752" height="366" fill="none" xmlns="http://www.w3.org/2000/svg"><rect width="2752" height="366" rx="30" fill="#1E2022"/><rect x="147" y="119" width="128" height="128" rx="13.964" fill="#2B6DFF"/><g clip-path="url(#a)" stroke="#fff" stroke-width="5.382" stroke-linecap="round" stroke-linejoin="round"><path d="M178.709 163.267a12.563 12.563 0 0 0 7.752 11.602 12.56 12.56 0 0 0 16.407-6.796 12.563 12.563 0 0 0 0-9.612 12.558 12.558 0 0 0-24.159 4.806ZM176.914 215.291h28.703l-14.351-25.115-14.352 25.115ZM218.176 150.709l25.115 25.116M218.176 175.825l25.115-25.116M218.176 190.176h25.115v25.115h-25.115v-25.115Z"/></g><rect x="341.133" y="119" width="128" height="128" rx="13.964" fill="#20C928"/><g clip-path="url(#b)" stroke="#fff" stroke-width="5.534" stroke-linecap="round" stroke-linejoin="round"><path d="M372.068 216.478V201.72a14.754 14.754 0 0 1 9.11-13.634 14.763 14.763 0 0 1 16.083 3.199 14.751 14.751 0 0 1 4.038 7.556 14.75 14.75 0 0 1-6.275 15.149 14.755 14.755 0 0 1-8.199 2.488h-14.757Z"/><path d="M438.476 150.068a59.034 59.034 0 0 0-47.224 37.632M438.477 150.068a59.032 59.032 0 0 1-37.632 47.225"/><path d="M400.106 172.205a33.203 33.203 0 0 1 16.234 16.233"/></g><rect x="535.267" y="119" width="128" height="128" rx="13.964" fill="#D41CF1"/><g clip-path="url(#c)" stroke="#fff" stroke-width="5.745" stroke-linecap="round" stroke-linejoin="round"><path d="M571.873 163.267h3.83a7.66 7.66 0 0 0 7.66-7.661 3.83 3.83 0 0 1 3.831-3.83h22.982a3.828 3.828 0 0 1 3.83 3.83 7.66 7.66 0 0 0 7.66 7.661h3.831a7.662 7.662 0 0 1 7.66 7.66V205.4a7.663 7.663 0 0 1-7.66 7.661h-53.624a7.658 7.658 0 0 1-7.661-7.661v-34.473a7.657 7.657 0 0 1 7.661-7.66Z"/><path d="M587.194 186.248a11.49 11.49 0 1 0 22.981 0 11.49 11.49 0 0 0-22.981 0Z"/></g><rect x="729.4" y="119" width="128" height="128" rx="13.964" fill="#E11D48"/><g clip-path="url(#d)" stroke="#fff" stroke-width="6.182" stroke-linecap="round" stroke-linejoin="round"><path d="M755.727 170.054a8.24 8.24 0 0 1 8.242-8.242h57.697a8.243 8.243 0 0 1 8.243 8.242v37.091a8.245 8.245 0 0 1-8.243 8.242h-57.697a8.241 8.241 0 0 1-8.242-8.242v-37.091Z"/><path d="m809.304 145.328-16.485 16.484-16.485-16.484M805.181 161.812v53.575M817.546 194.782v.042M817.546 182.418v.042"/></g><rect x="923.533" y="119" width="128" height="128" rx="13.964" fill="#FD1793"/><g clip-path="url(#e)" stroke="#fff" stroke-width="6.4" stroke-linecap="round" stroke-linejoin="round"><path d="M987.533 221.4a38.4 38.4 0 0 1 0-76.8c21.207 0 38.397 15.283 38.397 34.133 0 4.523-2.02 8.866-5.62 12.066-3.6 3.2-8.49 5.001-13.58 5.001h-10.663a8.535 8.535 0 0 0-8.383 6.333 8.53 8.53 0 0 0 4.116 9.667 5.55 5.55 0 0 1 1.307 6.329 5.548 5.548 0 0 1-5.574 3.271Z"/><path d="M968.334 176.601a4.267 4.267 0 1 0 8.533 0 4.267 4.267 0 0 0-8.533 0ZM985.4 163.8c0 1.132.449 2.217 1.25 3.017a4.262 4.262 0 0 0 6.034 0 4.266 4.266 0 1 0-7.284-3.017ZM1002.47 176.601a4.267 4.267 0 0 0 7.28 3.017 4.267 4.267 0 0 0-3.02-7.284 4.268 4.268 0 0 0-4.26 4.267Z"/></g><rect x="1117.67" y="119" width="128" height="128" rx="13.964" fill="#4C3FED"/><g clip-path="url(#f)" stroke="#fff" stroke-width="6.255" stroke-linecap="round" stroke-linejoin="round"><path d="m1158.25 147.625-11.63 11.625M1216.37 205.75l-11.62 11.625M1177.62 147.625l-31 31M1197 147.625 1146.62 198M1216.37 147.625l-69.75 69.75M1216.37 167 1166 217.375M1216.37 186.375l-31 31"/></g><rect x="1311.8" y="119" width="128" height="128" rx="13.964" fill="#FFAA1B"/><g clip-path="url(#g)" stroke="#fff" stroke-width="6.036" stroke-linecap="round" stroke-linejoin="round"><path d="M1383.33 195.834c0 3.403 1.36 6.668 3.76 9.074a12.84 12.84 0 0 0 9.08 3.759c3.4 0 6.67-1.352 9.07-3.759a12.82 12.82 0 0 0 3.76-9.074c0-3.404-1.35-6.668-3.76-9.075a12.82 12.82 0 0 0-9.07-3.759c-3.41 0-6.67 1.353-9.08 3.759a12.864 12.864 0 0 0-3.76 9.075ZM1343 208.667v-38.5a12.834 12.834 0 0 1 25.67 0v38.5M1343 186.667h25.67M1409 183v25.667"/></g><rect x="1505.93" y="119" width="128" height="128" rx="13.964" fill="#8338EC"/><g clip-path="url(#h)" stroke="#fff" stroke-width="5.455" stroke-linecap="round" stroke-linejoin="round"><path d="M1599.87 196.027v-27.061c0-1.178-.31-2.334-.9-3.351a6.77 6.77 0 0 0-2.47-2.444l-23.63-13.527a6.776 6.776 0 0 0-3.37-.896c-1.18 0-2.35.309-3.38.896l-23.62 13.527a6.693 6.693 0 0 0-3.38 5.798v27.061a6.68 6.68 0 0 0 3.38 5.795l23.62 13.527c1.03.587 2.2.896 3.38.896 1.18 0 2.35-.309 3.37-.896l23.63-13.527a6.683 6.683 0 0 0 3.37-5.798ZM1569.5 216.249v-33.75M1569.5 182.499l29.46-17.01M1540.04 165.489l29.46 17.01"/></g><rect x="1700.07" y="119" width="128" height="128" rx="13.964" fill="#FF006E"/><g clip-path="url(#i)" stroke="#fff" stroke-width="6.182" stroke-linecap="round" stroke-linejoin="round"><path d="M1736.96 155.959a3.795 3.795 0 0 1 3.79-3.792h7.58c1.01 0 1.97.399 2.68 1.111a3.763 3.763 0 0 1 1.12 2.681v53.083c0 1.006-.4 1.97-1.12 2.681a3.78 3.78 0 0 1-2.68 1.111h-7.58a3.795 3.795 0 0 1-3.79-3.792v-53.083Z"/><path d="M1752.12 155.959c0-1.006.4-1.97 1.12-2.681a3.776 3.776 0 0 1 2.68-1.111h7.58a3.795 3.795 0 0 1 3.79 3.792v53.083a3.795 3.795 0 0 1-3.79 3.792h-7.58c-1.01 0-1.97-.4-2.68-1.111a3.763 3.763 0 0 1-1.12-2.681v-53.083ZM1736.96 167.333h15.17M1752.12 197.667h15.17"/><path d="m1770.34 154.291 8.28-2.01c2.13-.512 4.29.721 4.86 2.776l14.01 50.876c.25.932.14 1.922-.31 2.777a3.836 3.836 0 0 1-2.1 1.845l-.5.156-8.28 2.009c-2.13.512-4.3-.72-4.86-2.775l-14.01-50.877a3.826 3.826 0 0 1 .31-2.776 3.856 3.856 0 0 1 2.09-1.846l.51-.155ZM1771.08 171.125l15.17-3.792M1778.67 197.667l14.87-3.716"/></g><rect x="1894.2" y="119" width="128" height="128" rx="13.964" fill="#00A1FF"/><g clip-path="url(#j)" stroke="#fff" stroke-width="6.473" stroke-linecap="round" stroke-linejoin="round"><path d="M1922.75 159.5c0-2.077.83-4.07 2.29-5.539a7.85 7.85 0 0 1 5.54-2.294h54.84c2.07 0 4.07.825 5.54 2.294a7.868 7.868 0 0 1 2.29 5.539v47c0 2.078-.83 4.07-2.29 5.539a7.851 7.851 0 0 1-5.54 2.295h-54.84c-2.07 0-4.07-.826-5.54-2.295a7.866 7.866 0 0 1-2.29-5.539v-47ZM1938.42 167.334h39.16M1938.42 183h39.16M1938.42 198.667h39.16"/></g><rect x="2088.33" y="119" width="128" height="128" rx="13.964" fill="#F97316"/><g clip-path="url(#k)" stroke="#fff" stroke-width="4.121" stroke-linecap="round" stroke-linejoin="round"><path d="M2117.37 217.501h15.17l49.29-49.833a10.908 10.908 0 0 0 3.14-7.667c0-2.876-1.13-5.633-3.14-7.667a10.664 10.664 0 0 0-7.58-3.175c-2.84 0-5.57 1.142-7.58 3.175l-49.3 49.834v15.333ZM2160.98 158.083l15.16 15.333M2151.5 167.666l-18.96-19.166-15.17 15.333L2136.33 183M2132.54 167.667l-5.69 5.75M2166.67 183l18.95 19.167-15.16 15.333-18.96-19.167M2166.67 202.167l-5.69 5.75"/></g><rect x="2282.47" y="119" width="128" height="128" rx="13.964" fill="#6366F1"/><g clip-path="url(#l)" stroke="#fff" stroke-width="6.545" stroke-linecap="round" stroke-linejoin="round"><path d="M2311.56 156.818c0-2.315.92-4.535 2.55-6.172a8.741 8.741 0 0 1 6.17-2.556h52.37c2.31 0 4.53.92 6.17 2.556a8.751 8.751 0 0 1 2.55 6.172v52.363c0 2.315-.92 4.535-2.55 6.171a8.738 8.738 0 0 1-6.17 2.557h-52.37c-2.31 0-4.53-.92-6.17-2.557a8.747 8.747 0 0 1-2.55-6.171v-52.363ZM2337.74 148.09l17.45 69.819M2346.47 183l-34.91 8.728"/></g><rect x="2476.6" y="119" width="128" height="128" rx="13.964" fill="#13C153"/><g clip-path="url(#m)" stroke="#fff" stroke-width="7.127" stroke-linecap="round" stroke-linejoin="round"><path d="m2502.75 183 12.75 12.75 12.75-12.75-12.75-12.75-12.75 12.75ZM2553.75 183l12.75 12.75 12.75-12.75-12.75-12.75-12.75 12.75ZM2528.25 157.5l12.75 12.75 12.75-12.75-12.75-12.75-12.75 12.75ZM2528.25 208.5l12.75 12.75 12.75-12.75-12.75-12.75-12.75 12.75Z"/></g><defs><clipPath id="a"><path fill="#fff" d="M167.945 139.945h86.109v86.109h-86.109z"/></clipPath><clipPath id="b"><path fill="#fff" d="M361 139h88.546v88.546H361z"/></clipPath><clipPath id="c"><path fill="#fff" d="M552.721 136.454h91.927v91.927h-91.927z"/></clipPath><clipPath id="d"><path fill="#fff" d="M743.364 132.964h98.909v98.909h-98.909z"/></clipPath><clipPath id="e"><path fill="#fff" d="M936.334 131.8h102.4v102.4h-102.4z"/></clipPath><clipPath id="f"><path fill="#fff" d="M1135 136h93v93h-93z"/></clipPath><clipPath id="g"><path fill="#fff" d="M1332 139h88v88h-88z"/></clipPath><clipPath id="h"><path fill="#fff" d="M1529 142h81v81h-81z"/></clipPath><clipPath id="i"><path fill="#fff" d="M1718 137h91v91h-91z"/></clipPath><clipPath id="j"><path fill="#fff" d="M1911 136h94v94h-94z"/></clipPath><clipPath id="k"><path fill="#fff" d="M2106 137h91v92h-91z"/></clipPath><clipPath id="l"><path fill="#fff" d="M2294.1 130.636h104.727v104.727H2294.1z"/></clipPath><clipPath id="m"><path fill="#fff" d="M2490 132h102v102h-102z"/></clipPath></defs></svg>